<mxfile host="65bd71144e" modified="2020-12-18T01:23:03.625Z" agent="5.0 (Macintosh; Intel Mac OS X 10_15_7) AppleWebKit/537.36 (KHTML, like Gecko) Code/1.52.0 Chrome/83.0.4103.122 Electron/9.3.5 Safari/537.36" version="13.10.0" etag="8VKsE5gwbEj1Mam1Sz1p" type="embed">
    <diagram id="mtzv5NuAQKkvK7Q9hyVX" name="第 1 页">
        <mxGraphModel dx="728" dy="382" grid="1" gridSize="10" guides="1" tooltips="1" connect="1" arrows="1" fold="1" page="1" pageScale="1" pageWidth="827" pageHeight="1169" math="0" shadow="0">
            <root>
                <mxCell id="0"/>
                <mxCell id="1" parent="0"/>
                <mxCell id="5" value="" style="edgeStyle=orthogonalEdgeStyle;rounded=0;orthogonalLoop=1;jettySize=auto;html=1;fontSize=14;" edge="1" parent="1" source="3" target="4">
                    <mxGeometry relative="1" as="geometry"/>
                </mxCell>
                <mxCell id="3" value="set" style="rounded=1;whiteSpace=wrap;fontSize=14;glass=0;strokeWidth=1;shadow=0;" vertex="1" parent="1">
                    <mxGeometry x="300" y="20" width="120" height="40" as="geometry"/>
                </mxCell>
                <mxCell id="7" value="" style="edgeStyle=orthogonalEdgeStyle;rounded=0;orthogonalLoop=1;jettySize=auto;html=1;fontSize=14;" edge="1" parent="1" source="4" target="6">
                    <mxGeometry relative="1" as="geometry"/>
                </mxCell>
                <mxCell id="8" value="否" style="edgeLabel;html=1;align=center;verticalAlign=middle;resizable=0;points=[];fontSize=14;" vertex="1" connectable="0" parent="7">
                    <mxGeometry x="0.08" y="-3" relative="1" as="geometry">
                        <mxPoint as="offset"/>
                    </mxGeometry>
                </mxCell>
                <mxCell id="10" value="" style="edgeStyle=orthogonalEdgeStyle;rounded=0;orthogonalLoop=1;jettySize=auto;html=1;fontSize=14;" edge="1" parent="1" source="4" target="9">
                    <mxGeometry relative="1" as="geometry"/>
                </mxCell>
                <mxCell id="4" value="shallow" style="rhombus;rounded=0;shadow=0;strokeWidth=1;glass=0;labelBackgroundColor=none;fontFamily=Helvetica;spacing=0;" vertex="1" parent="1">
                    <mxGeometry x="270" y="120" width="180" height="70" as="geometry"/>
                </mxCell>
                <mxCell id="6" value="update Ref" style="rounded=1;whiteSpace=wrap;fontSize=14;glass=0;strokeWidth=1;shadow=0;" vertex="1" parent="1">
                    <mxGeometry x="500" y="135" width="120" height="40" as="geometry"/>
                </mxCell>
                <mxCell id="12" value="" style="edgeStyle=orthogonalEdgeStyle;rounded=0;orthogonalLoop=1;jettySize=auto;html=1;fontSize=14;" edge="1" parent="1" source="9" target="11">
                    <mxGeometry relative="1" as="geometry"/>
                </mxCell>
                <mxCell id="9" value="Reflect.set" style="rounded=1;whiteSpace=wrap;fontSize=14;glass=0;strokeWidth=1;shadow=0;" vertex="1" parent="1">
                    <mxGeometry x="300" y="240" width="120" height="40" as="geometry"/>
                </mxCell>
                <mxCell id="14" value="" style="edgeStyle=orthogonalEdgeStyle;rounded=0;orthogonalLoop=1;jettySize=auto;html=1;fontSize=14;" edge="1" parent="1" source="11" target="13">
                    <mxGeometry relative="1" as="geometry"/>
                </mxCell>
                <mxCell id="15" value="否" style="edgeLabel;html=1;align=center;verticalAlign=middle;resizable=0;points=[];fontSize=14;" vertex="1" connectable="0" parent="14">
                    <mxGeometry y="1" relative="1" as="geometry">
                        <mxPoint as="offset"/>
                    </mxGeometry>
                </mxCell>
                <mxCell id="18" value="" style="edgeStyle=orthogonalEdgeStyle;rounded=0;orthogonalLoop=1;jettySize=auto;html=1;fontSize=14;" edge="1" parent="1" source="11" target="17">
                    <mxGeometry relative="1" as="geometry"/>
                </mxCell>
                <mxCell id="19" value="是" style="edgeLabel;html=1;align=center;verticalAlign=middle;resizable=0;points=[];fontSize=14;" vertex="1" connectable="0" parent="18">
                    <mxGeometry x="-0.08" y="-1" relative="1" as="geometry">
                        <mxPoint as="offset"/>
                    </mxGeometry>
                </mxCell>
                <mxCell id="11" value="target === toRaw(receiver)" style="rhombus;rounded=0;shadow=0;strokeWidth=1;glass=0;labelBackgroundColor=none;fontFamily=Helvetica;spacing=0;" vertex="1" parent="1">
                    <mxGeometry x="270" y="330" width="180" height="70" as="geometry"/>
                </mxCell>
                <mxCell id="13" value="return result" style="rounded=1;whiteSpace=wrap;fontSize=14;glass=0;strokeWidth=1;shadow=0;" vertex="1" parent="1">
                    <mxGeometry x="300" y="440" width="120" height="40" as="geometry"/>
                </mxCell>
                <mxCell id="21" value="" style="edgeStyle=orthogonalEdgeStyle;rounded=0;orthogonalLoop=1;jettySize=auto;html=1;fontSize=14;" edge="1" parent="1" source="17" target="20">
                    <mxGeometry relative="1" as="geometry"/>
                </mxCell>
                <mxCell id="22" value="是" style="edgeLabel;html=1;align=center;verticalAlign=middle;resizable=0;points=[];fontSize=14;" vertex="1" connectable="0" parent="21">
                    <mxGeometry x="-0.05" y="-3" relative="1" as="geometry">
                        <mxPoint as="offset"/>
                    </mxGeometry>
                </mxCell>
                <mxCell id="24" style="edgeStyle=orthogonalEdgeStyle;rounded=0;orthogonalLoop=1;jettySize=auto;html=1;entryX=0;entryY=0.5;entryDx=0;entryDy=0;fontSize=14;" edge="1" parent="1" source="17" target="23">
                    <mxGeometry relative="1" as="geometry">
                        <Array as="points">
                            <mxPoint x="590" y="270"/>
                        </Array>
                    </mxGeometry>
                </mxCell>
                <mxCell id="25" value="否" style="edgeLabel;html=1;align=center;verticalAlign=middle;resizable=0;points=[];fontSize=14;" vertex="1" connectable="0" parent="24">
                    <mxGeometry x="0.0526" relative="1" as="geometry">
                        <mxPoint as="offset"/>
                    </mxGeometry>
                </mxCell>
                <mxCell id="17" value="hadKey" style="rhombus;rounded=0;shadow=0;strokeWidth=1;glass=0;labelBackgroundColor=none;fontFamily=Helvetica;spacing=0;" vertex="1" parent="1">
                    <mxGeometry x="500" y="330" width="180" height="70" as="geometry"/>
                </mxCell>
                <mxCell id="27" style="edgeStyle=orthogonalEdgeStyle;rounded=0;orthogonalLoop=1;jettySize=auto;html=1;fontSize=14;" edge="1" parent="1" source="20">
                    <mxGeometry relative="1" as="geometry">
                        <mxPoint x="420" y="460" as="targetPoint"/>
                        <Array as="points">
                            <mxPoint x="890" y="365"/>
                            <mxPoint x="890" y="460"/>
                        </Array>
                    </mxGeometry>
                </mxCell>
                <mxCell id="20" value="trigger set" style="rounded=1;whiteSpace=wrap;fontSize=14;glass=0;strokeWidth=1;shadow=0;" vertex="1" parent="1">
                    <mxGeometry x="720" y="345" width="120" height="40" as="geometry"/>
                </mxCell>
                <mxCell id="26" style="edgeStyle=orthogonalEdgeStyle;rounded=0;orthogonalLoop=1;jettySize=auto;html=1;entryX=1;entryY=0.5;entryDx=0;entryDy=0;fontSize=14;" edge="1" parent="1" source="23" target="13">
                    <mxGeometry relative="1" as="geometry">
                        <Array as="points">
                            <mxPoint x="890" y="270"/>
                            <mxPoint x="890" y="460"/>
                        </Array>
                    </mxGeometry>
                </mxCell>
                <mxCell id="23" value="trigger add" style="rounded=1;whiteSpace=wrap;fontSize=14;glass=0;strokeWidth=1;shadow=0;" vertex="1" parent="1">
                    <mxGeometry x="720" y="250" width="120" height="40" as="geometry"/>
                </mxCell>
            </root>
        </mxGraphModel>
    </diagram>
</mxfile>